<?xml version="1.0" encoding="UTF-8"?>
<svg id="Layer_1" data-name="Layer 1" xmlns="http://www.w3.org/2000/svg" viewBox="0 0 64.3 178.7">
  <defs>
    <style>
      .cls-1 {
        fill: #dde6f1;
      }
    </style>
  </defs>
  <path class="cls-1" d="M17.2,34.3C7.7,53.2,0,69.4,0,70.2c0,.9,4.1,20.6,9.2,43.8l9.1,42.2,8,11.2c4.4,6.2,8.3,11.3,8.6,11.3s7.1-23.5,15-52.3l14.4-52.2-1.7-13-1.8-13-13-24C40.6,11,34.6,.1,34.6,0c-.1-.1-7.9,15.3-17.4,34.3Zm35,13.5c-2.6,1-25.3,5.1-25.7,4.7-.2-.2,.7-4.8,2-10.3,1.2-5.5,3.3-14.4,4.5-19.9l2.2-9.9,9.4,17.4c8,14.9,9.1,17.5,7.6,18Zm-26.7-9.2c-1.9,7.9-3.6,14.9-3.8,15.5-.3,.6-3.2,3-6.6,5.4l-6.1,4.3,2.4-5.3c3.1-7.1,17-34.8,17.2-34.5,.1,.1-1.3,6.7-3.1,14.6Zm22.7,20.8c-2.7,4.3-5.5,8.8-6.3,10-.8,1.3-1.7,2.3-2,2.3s-3.4-3.4-6.8-7.5c-5.9-7.1-6.1-7.5-3.9-8,3.2-.8,21-4.3,22.6-4.4,.6-.1-1,3.4-3.6,7.6Zm9.3,5.6l.7,6.6-3.3,.5c-6,.9-10.9,1.2-10.7,.6,.2-.3,2.8-4.5,5.8-9.3,6.1-9.7,6.3-9.6,7.5,1.6Zm-28,.4c3.1,3.7,5.3,6.8,4.9,7-1.6,.4-24.9-3.2-24.9-3.9,0-1,11.7-9.7,13.1-9.7,.7-.1,3.7,2.9,6.9,6.6Zm-3.7,9.9c9.7,1.4,12.2,2,12.2,3.3,.2,5.6-5.6,86.1-6.1,86.1-.4,0-2.3-2.4-4.4-5.4-3.6-5.2-4.1-7.3-12.1-43.8-4.6-21.1-8.6-39.4-8.9-40.7-.6-2.3-.4-2.3,3.2-1.8,2.1,.3,9.3,1.4,16.1,2.3Zm32,1.6c-.3,.7-4.9,17.6-10.3,37.5-5.5,19.9-10,36.1-10.2,35.9s.8-16.5,2.2-36.2,2.5-36.2,2.5-36.6c0-.6,4.1-1.1,12.9-1.6,2.3-.1,3.2,.2,2.9,1Z"/>
</svg>